<svg width="886" height="152" viewBox="0 0 886 152" fill="none" xmlns="http://www.w3.org/2000/svg">
<path d="M26.42 89.435V64.495H58.455C65.1917 64.495 70.3517 62.775 73.935 59.335C77.6617 55.895 79.525 51.2367 79.525 45.36C79.525 39.9133 77.7333 35.3983 74.15 31.815C70.5667 28.2317 65.4067 26.44 58.67 26.44H26.42V0.209994H62.54C72.5733 0.209994 81.3883 2.14499 88.985 6.015C96.5817 9.74166 102.53 14.9733 106.83 21.71C111.13 28.4467 113.28 36.1867 113.28 44.93C113.28 53.8167 111.13 61.6283 106.83 68.365C102.53 74.9583 96.51 80.1183 88.77 83.845C81.03 87.5717 71.9283 89.435 61.465 89.435H26.42ZM0.620001 152V0.209994H34.375V152H0.620001ZM83.18 152L35.88 86.64L66.84 78.255L123.17 152H83.18ZM142.234 152V0.209994H175.989V152H142.234ZM168.034 152V122.76H251.239V152H168.034ZM168.034 88.575V60.41H243.714V88.575H168.034ZM168.034 29.235V0.209994H250.164V29.235H168.034ZM270.131 111.58V82.77H346.241V111.58H270.131ZM376.752 152V0.209994H410.507V152H376.752ZM466.831 152V122.33H504.456C513.629 122.33 521.656 120.538 528.536 116.955C535.416 113.228 540.719 107.853 544.446 100.83C548.172 93.8067 550.036 85.4933 550.036 75.89C550.036 66.2867 548.101 58.045 544.231 51.165C540.504 44.285 535.201 38.9817 528.321 35.255C521.584 31.5283 513.629 29.665 504.456 29.665H465.756V0.209994H504.886C516.352 0.209994 526.887 2.07333 536.491 5.8C546.237 9.38333 554.694 14.615 561.861 21.495C569.171 28.2317 574.761 36.2583 578.631 45.575C582.644 54.7483 584.651 64.925 584.651 76.105C584.651 87.1417 582.644 97.3183 578.631 106.635C574.761 115.952 569.242 123.978 562.076 130.715C554.909 137.452 546.452 142.683 536.706 146.41C527.102 150.137 516.639 152 505.316 152H466.831ZM444.041 152V0.209994H477.796V152H444.041ZM610.431 152V0.209994H644.186V152H610.431ZM636.231 152V122.76H719.436V152H636.231ZM636.231 88.575V60.41H711.911V88.575H636.231ZM636.231 29.235V0.209994H718.361V29.235H636.231ZM735.611 152L795.811 0.209994H826.341L885.896 152H850.206L804.626 26.01H816.881L770.656 152H735.611ZM769.796 124.48V96.96H852.571V124.48H769.796Z" fill="white"/>
</svg>
